<svg id="Layer_1" data-name="Layer 1" xmlns="http://www.w3.org/2000/svg" xmlns:xlink="http://www.w3.org/1999/xlink" viewBox="0 0 511.82 511.86"><defs><style>.cls-1{fill:none;}.cls-2{fill:#fff;}.cls-3{fill:#231f20;}.cls-4{clip-path:url(#clip-path);}.cls-5{fill:#e8002a;}.cls-6{fill:#1d191a;}</style><clipPath id="clip-path" transform="translate(-0.14 -0.14)"><path class="cls-1" d="M28.49,19.59a8.62,8.62,0,0,0-8.57,9.28l36.4,459.07a5,5,0,0,0,5.06,4.67H450.71a5.14,5.14,0,0,0,5.06-4.67l36.4-459.07a8.63,8.63,0,0,0-8.57-9.28Z"/></clipPath></defs><title>kfc</title><path class="cls-2" d="M60.93,508.86a21,21,0,0,1-20.79-19.19L3.35,25.74A20.83,20.83,0,0,1,24.14,3.28H488.08A20.68,20.68,0,0,1,503.37,10a20.94,20.94,0,0,1,5.44,15.74L472,489.73a21,21,0,0,1-20.8,19.2H60.93Z" transform="translate(-0.14 -0.14)"/><path class="cls-3" d="M488,.14H24.14A24.22,24.22,0,0,0,6.48,7.82,24.32,24.32,0,0,0,.21,26L37,490a24.13,24.13,0,0,0,23.93,22H451.22a24,24,0,0,0,23.87-22L511.88,26a24,24,0,0,0-6.21-18.17A24.21,24.21,0,0,0,488,.14m0,6.27a17.65,17.65,0,0,1,17.66,19.07l-36.79,464a17.71,17.71,0,0,1-17.66,16.31H60.93a17.67,17.67,0,0,1-17.66-16.31L6.42,25.48A17.74,17.74,0,0,1,24.14,6.41Z" transform="translate(-0.14 -0.14)"/><g class="cls-4"><rect class="cls-5" x="6.28" y="9.66" width="124.83" height="350.24"/></g><g class="cls-4"><rect class="cls-5" x="380.76" y="9.66" width="124.83" height="350.24"/></g><path class="cls-3" d="M196.77,232c.12,6.4,3.83,23.29,25.33,39.35,9,6.72,13.05,9.72,14.27,10.49v.07c.58.38-3.2.32-4.22.44-1.67.2-7.42-.38-12,.52-4.16.76-3.58,1.72-4,4.73-.32,2.37,0,6.14-.13,9.34s-.32,5.5,1.09,7,2.17,1.79,7.87,1.41c5.37-.32,20.34-.32,22.13-.71,2.31-.44,1.92.39.64,3.2-2.3,4.93-9.72,27.39-21.3,48.69-1.6,3,2.94,1.6,6.84,3.46,7,3.39,6.79,4.35,8.64.77,2-3.84,12.16-27.71,13.76-35.13.19-1,.64-1.79.76-.32.13,1,.26,31.22-.57,40.76a1.6,1.6,0,0,0,.45,1.4,3.75,3.75,0,0,0,1.92.9h0c3.52-1.15,7.74-2.05,11.32-1.41l.9-.19a2.2,2.2,0,0,0,.51-.58,7.07,7.07,0,0,0,.57-1.66v-.13A15.75,15.75,0,0,0,272,362c.06-.51.06-1,.13-1.47s.06-1.28.06-1.86c0-.76.06-1.53.06-2.3v-5.56c0-1.09-.06-.71-.06-1.8s-.06-2.3-.13-3.45-.13-2.43-.19-3.65-.13-2.49-.26-3.77-.19-2.56-.32-3.84-.25-2.63-.38-3.91-.32-2.62-.45-4-.32-2.63-.51-3.91-.38-2.55-.64-3.83-.45-1.8-.7-3-.51-2.43-.83-3.58-.58-2.31-.9-3.4c-.26-.89-.51-1.79-.83-2.68a5.91,5.91,0,0,1-.26-1.54c.07-.45.64-.13,1.28-.25a2.15,2.15,0,0,1,.45-.07,86.79,86.79,0,0,1,12-.13c1.47.07,9.08.77,11.26,1s4.73.71,4.61-5.75c0-1.73-.07-2.76,0-4.36v-3.77a4.85,4.85,0,0,1,.06-1v-1.79a2.54,2.54,0,0,1,.06-.64c.07-1.6-.12-4.48-3.13-5.25a51.87,51.87,0,0,0-14.91-.57c-.77.06-.9,0-.7-.2v-.06a124.57,124.57,0,0,0,18-13.18c9.85-8.83,14.58-13.56,17.59-20,0,0,10.81-20.92,10.24-38.71-.13-3.58.45-3.26,2.69-3.2a10.56,10.56,0,0,0,4.6-1.09c4.61-1,8.64-16.7,8.64-16.7s6.91-23.74,8.57-33.46c1.47-8.64,1.15-13.69-4.16-16.25l-.89-.51a1,1,0,0,1-.45-1.16,7.64,7.64,0,0,0,.26-1.15c2.56-8.95,7.16-20.28,6.14-24.89a2.71,2.71,0,0,0-1.66-2,13.41,13.41,0,0,1-3.14-4.22,3,3,0,0,1-.13-.71c-1.47-16.89-7.48-38.13-25.33-56.56,0,0-1.22-1.15-2-1.79-1.53-1.41-3.52-3.07-5.76-4.8a94.07,94.07,0,0,0-16.38-10.23,85.58,85.58,0,0,0-15.16-5.12c-.83-.19-1.66-.45-2.43-.64-1.28-.32-3.26-.64-5.57-1a81.8,81.8,0,0,0-17.46-.9h0c-.77.07-1.6.07-1.86.07a7.39,7.39,0,0,0-1.15.06,9.14,9.14,0,0,0-1.28.06c-1.28.07-3,.26-4.86.52-3,.44-6.08,1-8,1.47-2.18.51-5.06,1.15-8.7,2.17-1.47.45-3,.9-4.48,1.41-.45.13-.83.26-1.28.38-1.6.52-3.26,1.09-4.86,1.67-1.22.45-6.27,2.62-7.36,3.13-.51.26-1.28.58-2.05.9-3.58,1.15-4.35,3.2-4.48,4.35a6,6,0,0,1-.57,2.11C197,52.67,184.8,53.76,180,54c-1.28.07-2.37.26-2,1.47,1,3.14,6.72,9,10.17,10-.06.51-2.94,1.15-3.58,1.28-1.41.38-7.17-.13-7.42-.07h-.07c-6.52.58-8.51,5-9.08,7.11a2.28,2.28,0,0,0,.32,1.92c1.4,2.17,2.94,4,4.09,6.84a.07.07,0,0,0,.07.07,20.3,20.3,0,0,1,.83,2.56c.13,1.21,1.15,2.55-.13,4.92-2.24,4.29-7.74,5.63-8.57,9.92-1.16,6.08.89,10,3.2,20.09,1.59,6.91,3.26,14,4.47,17.21a.3.3,0,0,1-.19.38,7.63,7.63,0,0,0-1.6.39c-3.2,1.28-4.22,3.84-4.6,8.76-.84,10.94,7.29,27.84,9.79,42.3.83,4.86,3.07,12.73,6.84,15.93a9.15,9.15,0,0,0,3.78,1.41c2.94.51,4.22-1.35,4.35,1.59.06.64.25,2.24.25,3.2.26,10.37,5.83,20.67,5.83,20.67m5-173.84a16.73,16.73,0,0,1,3.71-3.52c1.6-1.15,9.6-7.1,17-9.34,1.34-.38,1.72-.64,2.62-.83,1.09-.32,2-2.69-.26-3a20.26,20.26,0,0,0-4.67-.13c-1.28,0-1.92-.64-1-1.66s2.69-2,5.7-3.26c6.59-2.63,18.23-4,23.67-4.48,7.1-.64,7.93-.58,12.61-.26A80.79,80.79,0,0,1,270.54,33c8.12,1.47,17.53,5.25,25.85,9.85a119.34,119.34,0,0,1,12.54,8.58c12,9.34,25.65,27.06,23.67,64.36a46.7,46.7,0,0,1-1,7.94c-.32,1.08-1.73,2.94-2.5.51-2.49-8-5.63-22.08-12.86-33.21-1-1.53-2.56-1.41-2.43.26.06.7.38,7.8.19,9.15-1.15,9.15,1.66,5.63,5.76,15.42a56.45,56.45,0,0,1,3.33,12.92,26.47,26.47,0,0,1,.25,3.2c0,1.34-.64,1.47-.64,1.47-2.81,0-7.74-1.34-10.43-1.41-3-.12-24.05-.32-31.92.32s-12.22,3.46-16.7,7.11a15,15,0,0,1-2.37,1.47,1.7,1.7,0,0,1-1,.13l-1.86-.39a13.41,13.41,0,0,0-6.14,0c-1.85.58-2.75,1-4.8-.13-2.88-1.66-7.35-8.44-22.84-8.57-8.76-.06-20.34-.19-27.13.13-2.17.06-3.32.32-3.9.32a3.71,3.71,0,0,1-.06-.71c-.13-12.41,8-9.66,8.89-12.86,2.3-8,2.88-27.32,16.89-39.22,6.72-5.69,10.17-5.88,16.38-5.88,6.72,0,13.24,1.72,16.57,3.39,2.63,1.28,4,2.17,5,1.4s3.84-3.32,5-4.15.71-2.24-.38-3.14-11-13.37-26.23-15.87a64.08,64.08,0,0,0-9.22-1.15,42.61,42.61,0,0,0-7.23.39c-5.82.7-13.43,4-18.36,5.88-.38-.38.64-2,1-2.43M321.91,138.6c-.64.7-1.21.26-2.49.58-1,.25-1.66.83-2.62.76a2,2,0,0,1-1.41-3.07c1.21-1.79,2.94-.25,4.35,0a9.68,9.68,0,0,1,1.85.19c.64.26.77.9.32,1.54m-20.85,6.27a15.83,15.83,0,0,1-3.65-3.45c-.45-.77-.32-1.41.83-1.41,4.16-.07,8-.13,9.85,1.41,1.35,1.15,1.41,3.51.71,5.05-.77,1.73-2.31,1.28-3.14,1.15s-4.6-2.75-4.6-2.75m1.85,7.42c-.77.39-3.77-.57-4.61-1.09a26,26,0,0,1-5.05-3.45c-1.47-1.22-4.16-1.79-6.65-1.73a32.37,32.37,0,0,0-5.38.83c-1.47.39-1.6-1-1.15-1.47s2.5-2.37,7-3.58a8.46,8.46,0,0,1,2.56-.06,11.19,11.19,0,0,1,5.76,3,47.35,47.35,0,0,0,6.66,5.44c.83.64,2.75,1.15.89,2.11m-64.24,31.23a5.56,5.56,0,0,1,.52,2.87c-.13.71-2.69,1.67-4.87-1.53a7.81,7.81,0,0,1,.13-8.64c2-2.49,5.12-.7,4.67.26a8.89,8.89,0,0,0-.45,7m-29.62-35.58a11.13,11.13,0,0,1,2.43-1.34c1.22-.71,2.62-1.54,4-2.43,2.56-1.67,7.42-3.39,9.47-3.39a8,8,0,0,1,5.44,2.17c1.47,1.6,1.86,3.39-.06,3.07a15.74,15.74,0,0,0-7.43,0,38.88,38.88,0,0,0-8.7,3.33,11.55,11.55,0,0,1-4.67,1.09c-.57,0-2.37-1-.51-2.5m-2.62-3.58c-1.92,1.21-3.78,2.62-5.19,3.52-1.72,1.15-4.15.06-3.45-2.37.32-1.22,2.05-4.22,4.86-4.73l2.94-.52,3.59-.32c2-.06,2.24,1.54.89,2.37-1,.58-2.43,1.28-3.64,2.05m-32-39.93c1.66-4.54,4.73-8.38,6.78-11.07,1.92-2.49,1-5.75,0-8.7-.64-2.68-2.37-5.5-2.63-6.27a1.8,1.8,0,0,1-.06-1.28,1.09,1.09,0,0,0,.38-.25l3.65-.32A75.7,75.7,0,0,0,205.15,70,25.65,25.65,0,0,1,209.5,68a26.25,26.25,0,0,1,5.37-1.41c1.35-.26,3-.45,4.42-.58,2-.25,5.37,1.22,4.6,1.67-1.72,1-9.91,2.94-17.08,11.51-4.41,5.25-5.44,8.51-6.91,10.88s-2.69,3-4.8,4.8a13.8,13.8,0,0,0-4.16,5.63,92.18,92.18,0,0,0-5.56,29.75c-.07,1.92-.39,3.91-2.18,4.61h0c-1.47.58-2.69,1.6-2.94.51-1-3.58-3.14-11.39-4.1-16.31-.32-1.54-.64-3.08-1-4.61-1-4.22-1.47-7.93-.7-10m8.83,77.74c-3-2-2.82-4.6-3.59-7.16-1.6-5.44-3.32-12-4.86-17.6-.9-3.39-1.15-11.32,3.45-11.32,2.31,0,4,.7,4.8,2.88,1.67,4.86-1.47,4-.64,9.72.58,4,1.35,8.06,2.63,14.91.57,3.13,1.6,10.81-1.16,9m10.88-42.68c-1,.13-1.73-.45-2.75-.7s-1.92.12-2.37-.58-.38-1.28.32-1.54a9.78,9.78,0,0,1,1.86-.19c1.41-.25,3.07-1.85,4.35-.06a2,2,0,0,1-1.41,3.07M197,173.21c-.45-1.79.38-4.47,4.6-1.79a23.33,23.33,0,0,0,4.87,2,1.93,1.93,0,0,0,2.56-1.16c.38-.95,1.47-2.87-.39-3.77s-6.46-1.73-9.15-8.25a2.37,2.37,0,0,1,1.09-2.82,2.32,2.32,0,0,1,2.56.64c.83.83,2.69,2.56,4.35,2.62s1.79-.57,2.05-.89c1.28-1.41,4.92-6.78,12.54-5.89,3.13.39,6,1.09,7.1,1.15a19.81,19.81,0,0,0,4.86-.25c2.31-.45,5.7-1.15,4,.77-1.34,1.53-2.49,2.23-1.28,3.9.07.06.13.19.2.25a4.25,4.25,0,0,1,0,5l-.13.2c-1.67,2.17-5.18,4.67-12.35,5.12-3.26.19-3.46.06-3.52,2a12.65,12.65,0,0,0,.06,1.6c.2,1,.77,1.34,3.08,1.47a23.3,23.3,0,0,0,4.67-.26c.76-.19,1.6.26,1.15.9a4.21,4.21,0,0,0-.45.64,11.65,11.65,0,0,0-2.3,5.18,3.13,3.13,0,0,1-1.54,2.31h-.06c-1,.51-5.31,1.47-8.64,4.22s-10.24,5-13.24,1.66-5.44-10.88-6.72-16.51m31.22,79.41c-6,.19-21.5-9.22-28.28-35.83-1.73-6.85,2.56-12.42,5.25-13.38a15.43,15.43,0,0,1,2.94-.83,2.7,2.7,0,0,1,3.14,3c-.07,2.49,2,23.1,7.35,30.58,1.35,1.86,2.56,1.92,3.2.26s1.47-3.46,1.79-4.22c.2-.52,2.18-3.52,2.76-1.28,1.21,4.86,4.15,14.78,5.37,17.34,2.05,4.35-1.28,4.28-3.52,4.35m3.71-43.13c-7.74-.13-11.32-3-11.9-3.84s.38-1.47,1.15-1.72a28.55,28.55,0,0,0,6.4-3.2c1.34-1,5-3.27,6.85-4.48.89-.58,5.88-2.75,8.76-.71,4.35,3.08,8.45,5.12,15.93,4.61,4.8-.32,4.74-4.16,8.64-5.44a16,16,0,0,0,5.31-2.62c1.41-.26,2.5-.64,4,.77,2,1.85,2.69,3.26,4.93,5.82,3.13,3.52,6.53,5.18,7.61,5.37a2.56,2.56,0,0,1,1.86,1.41c0,.32-.45,1.47-3.58,2.37a46.35,46.35,0,0,1-27.71-1.28,10.27,10.27,0,0,0-9.08.06c-3.2,1.67-12,2.95-19.2,2.88M271.11,216a48.41,48.41,0,0,1-9.47,2c-2.49.13-10.49.7-11.83.64a9.48,9.48,0,0,1-5.7-2.56c-.38-.32-.77-1.47.71-1.54,2.75-.06,7.35-1.53,23.29-.19,1.72.13,2.49.19,2.94.26s1.85.76.06,1.4m68.08-61.61c-2.11,11.13-4.42,16.76-5.95,23.67-1.54,7.17-4.67,17.66-7.61,17.92-3,.89-4.23-2.56-6.15,0-1.15,1.53-2,3.58-3.07,4.86a8.82,8.82,0,0,0-1.34,3.84,86.49,86.49,0,0,1-1.92,17.08c-2.69,12.86-7.68,22.27-12.8,28.22-9.85,11.32-19.06,13.18-20.15,13.76a5.62,5.62,0,0,1-4.22,0c-.71-.32-1.28-1.16-2.5-2.37s-1.66.64-1.73,1.09.64,5.82-.7,8.19c-2.94,5.24-5.76,5.69-7.36,12.15-.51,2.18-.19,5.5-2.81,4-6.4-3.64-15.62-13.56-17.54-23.22-.57-2.95-.06-6.21,1.73-11.78a35.57,35.57,0,0,0,1.79-9c0-3.71-1.47-6.84,0-7.16,2.69-.58,3.91,6.4,5.19,5.63,2.17-1.28.57-8.64.57-8.64s-.89-2.11-4.73-3c-2.18-.51-2.88-2.17-.58-3.32,1.73-.84,3.78-2,6.14-1.6,15.81,2.24,20.35-1,26.75-2.69a4.05,4.05,0,0,1,3,0c1,.45,3.58,1.92,4.15,3.26s0,6.59.84,10.56,3.64.38,4.35-1.22a33.52,33.52,0,0,0,1.53-6.33c.13-1,1-5.06,2.43-6.27a16.06,16.06,0,0,0,4.42-6.78A34.47,34.47,0,0,0,302,204.57c-.13-5.57-1.16-6.15-2.5-7.36s-2.94-1-6.33-4.1c-3-2.75-5.51-7.23-7.68-10a19.27,19.27,0,0,0-10-6.85c-4.16-1-2.43,2.82-2.18,3.9.19.77,1.15,4.16-.25,5.25s-9.73,6.72-17.15,4.8c-8.89-2.3-12-7.29-12.16-12-.13-3.39,1.47-6.65,3.52-10.56,1.22-2.24,1.66-6.07,2.11-9.66a47.42,47.42,0,0,1,1.79-8.57c.45-1.09,1.54-2.24,4-2.11s4,1.34,4.35,3.39c1.54,7.16,4,9,4.93,9.53s2.49-.57,3.07-1,2.24-2,1.73-2.94a10,10,0,0,1-1.35-2.95c-.32-1.34,1.41-1.21,1.73-.89,2.75,2.17,5.44,2.36,10.24,3.2,8.44,1.4,9.6-1.73,15.42-.71a4.25,4.25,0,0,1,2.62,1.6c.38.77,1.09,2.43,1.79,2.75a22.63,22.63,0,0,0,3.33.51c1.22.2,3.39.07,3.07,2.31-1,6.08-7.93,7.74-11.2,8.32a7,7,0,0,0-2.17.51c-.71.64-.71,2.49.06,3.77.58.9,3.2.9,6.85.19a14.7,14.7,0,0,0,10.24-7c3-4.74,4.67-15.1,5.05-17.09s1.15-5.18,2.18-5.88,6-2.18,6.65-2.05c.83.13,1.41.51,1.79,2.43s-.32,13.37-.32,15.1.9,1.86,1.47,1.6c1.15-.51,4.23-2.56,4.93-4.93.51-1.72-1-4.28-.19-6.71,1.15-3.78,2.3-4.8,3.07-4.74,4.8.45,5.76,2.56,4.67,8.7m67,234.3a2.69,2.69,0,0,1,1.92,3.2L403.17,414a2.25,2.25,0,0,1-2.24,1.79h-7a2.28,2.28,0,0,1-2.3-2.43V413c.32-7.29-4.29-12.73-14.65-12.73-17.28,0-29.88,14.2-31.48,32.82-1.73,19.26,11.77,30.39,30.33,30.39a71,71,0,0,0,21.3-3.2,2.36,2.36,0,0,1,3,2.69l-2.17,11.52a2.84,2.84,0,0,1-1.86,2.11c-3.84,1.21-14.52,4.09-30.9,4.09-39,0-54.77-22.39-52.34-45.23,2.17-20.35,15.61-50.29,68.72-50.29a87.59,87.59,0,0,1,24.63,3.32m-219.52.07a2.53,2.53,0,0,1,2.43-2h38.26a2.36,2.36,0,0,1,2.3,2.82l-1.28,5.89a2.18,2.18,0,0,1-2,1.79h-.26c-2.88.38-8.06,1.34-12.35,4.67l-31.8,26.42h0l24.51,33.15c4.73,6.07,7.1,7.23,11.83,7.29a2.48,2.48,0,0,1,2.37,3l-1.34,5.95a2.33,2.33,0,0,1-2.24,1.79h-19.2c-21.11,0-26.93-9.28-44.53-41.4h0l-5.12,23.42c-.76,3.65,2.31,5.57,4.48,6.46a1.54,1.54,0,0,1,.26.13,2.32,2.32,0,0,1,1.41,2.69l-1.54,6.84a2.33,2.33,0,0,1-2.24,1.8H106.42a2.43,2.43,0,0,1-2.36-2.95l1.27-5.88a2.61,2.61,0,0,1,2.18-2h.13c4-.45,8.32-3,10.94-15.55l10-45.87c1.28-6.08-1.79-8.45-4.41-9.47l-.45-.13a2.53,2.53,0,0,1-1.66-2.94l1.34-6.14a2.54,2.54,0,0,1,2.5-2h42a2.3,2.3,0,0,1,2.24,2.82l-1.34,6a2.43,2.43,0,0,1-1.73,1.86c-.13.06-.19.06-.32.13a8.6,8.6,0,0,0-6,6.14l-5.57,25.53h0l32.57-27.07c2-1.6,1.47-3.77-.77-4.6h0a2.51,2.51,0,0,1-1.73-3l1.35-5.63M304.32,414a2.29,2.29,0,0,1-2.3-2.62v-.32c.38-5.82-1.6-9.21-8.13-9.21H273.67l-5.37,24.57h28.92a2.29,2.29,0,0,1,2.24,2.81l-2.82,12.67a2.25,2.25,0,0,1-2.24,1.79H264.46s-3.33,15.1-3.46,15.74c-1.08,4.86,2.24,7.36,4.42,8.45a1.08,1.08,0,0,0,.32.12,2.29,2.29,0,0,1,1.28,2.5l-1.54,6.91a2.25,2.25,0,0,1-2.24,1.79H228.05a2.29,2.29,0,0,1-2.24-2.81l15.36-69.49c1.53-6.14-2-8.64-4.61-9.6a.39.39,0,0,0-.25-.06,2.4,2.4,0,0,1-1.54-2.82l1.34-6.14a2.54,2.54,0,0,1,2.5-2h78.25a2.32,2.32,0,0,1,2.24,2.81L314,411.93a2.25,2.25,0,0,1-2.23,1.79h-7.49" transform="translate(-0.14 -0.14)"/><path class="cls-6" d="M482.77,503v8.58h-1.35V503h-2.69v-1.21h6.79V503Zm11.77,8.58v-7.11l-2.37,4.67h-1.28l-2.37-4.67v7.11h-1.34v-9.79h1.34l3,5.95,3-5.95h1.28v9.79Z" transform="translate(-0.14 -0.14)"/></svg>